HIERARCHY
ROOT Hips
{
 OFFSET 0.000000 0.000000 0.000000
 CHANNELS 6 Xposition Yposition Zposition Yrotation Xrotation Zrotation
 JOINT Chest
 {
  OFFSET 0.000000 9.585900 0.002600
  CHANNELS 3 Yrotation Xrotation Zrotation
  JOINT Chest2
  {
   OFFSET 0.000000 9.601200 -0.005300
   CHANNELS 3 Yrotation Xrotation Zrotation
   JOINT Chest3
   {
    OFFSET 0.000000 9.561800 0.000000
    CHANNELS 3 Yrotation Xrotation Zrotation
    JOINT Chest4
    {
     OFFSET 0.000000 9.552100 0.000000
     CHANNELS 3 Yrotation Xrotation Zrotation
     JOINT Neck
     {
      OFFSET 0.000000 14.453000 0.000000
      CHANNELS 3 Yrotation Xrotation Zrotation
      JOINT Head
      {
       OFFSET 0.000000 8.936500 -0.011300
       CHANNELS 3 Yrotation Xrotation Zrotation
       End Site
       {
        OFFSET 0.000000 17.073600 -0.006000
       }
      }
     }
     JOINT RightCollar
     {
      OFFSET -2.921100 9.558500 0.000000
      CHANNELS 3 Yrotation Xrotation Zrotation
      JOINT RightShoulder
      {
       OFFSET -13.519700 0.000000 0.000000
       CHANNELS 3 Yrotation Xrotation Zrotation
       JOINT RightElbow
       {
        OFFSET 0.000000 -29.696600 0.000000
        CHANNELS 3 Yrotation Xrotation Zrotation
        JOINT RightWrist
        {
         OFFSET 0.000000 -24.004700 0.000000
         CHANNELS 3 Yrotation Xrotation Zrotation
         End Site
         {
          OFFSET 0.000000 -17.728500 0.000000
         }
        }
       }
      }
     }
     JOINT LeftCollar
     {
      OFFSET 2.921100 9.558500 0.000000
      CHANNELS 3 Yrotation Xrotation Zrotation
      JOINT LeftShoulder
      {
       OFFSET 13.519700 0.000000 0.000000
       CHANNELS 3 Yrotation Xrotation Zrotation
       JOINT LeftElbow
       {
        OFFSET 0.000000 -29.696600 0.000000
        CHANNELS 3 Yrotation Xrotation Zrotation
        JOINT LeftWrist
        {
         OFFSET 0.000000 -24.004700 0.000000
         CHANNELS 3 Yrotation Xrotation Zrotation
         End Site
         {
          OFFSET 0.000000 -17.728500 0.000000
         }
        }
       }
      }
     }
    }
   }
  }
 }
 JOINT RightHip
 {
  OFFSET -7.771700 -0.012900 -0.001300
  CHANNELS 3 Yrotation Xrotation Zrotation
  JOINT RightKnee
  {
   OFFSET 0.000000 -40.869800 0.001200
   CHANNELS 3 Yrotation Xrotation Zrotation
   JOINT RightAnkle
   {
    OFFSET 0.000000 -39.717900 0.002100
    CHANNELS 3 Yrotation Xrotation Zrotation
    JOINT RightToe
    {
     OFFSET 0.000000 -4.965400 11.033500
     CHANNELS 3 Yrotation Xrotation Zrotation
     End Site
     {
      OFFSET 0.000000 -1.423100 5.872300
     }
    }
   }
  }
 }
 JOINT LeftHip
 {
  OFFSET 7.771700 -0.012900 -0.001300
  CHANNELS 3 Yrotation Xrotation Zrotation
  JOINT LeftKnee
  {
   OFFSET 0.000000 -40.869800 0.001200
   CHANNELS 3 Yrotation Xrotation Zrotation
   JOINT LeftAnkle
   {
    OFFSET 0.000000 -39.717900 0.002100
    CHANNELS 3 Yrotation Xrotation Zrotation
    JOINT LeftToe
    {
     OFFSET 0.000000 -4.965400 11.033500
     CHANNELS 3 Yrotation Xrotation Zrotation
     End Site
     {
      OFFSET 0.000000 -1.423100 5.872300
     }
    }
   }
  }
 }
}
MOTION
Frames: 16
Frame Time: 0.008333
-225.463679 57.509288 -75.668125 161.484038 -9.521271 0.321656 2.998894 7.213018 0.594118 0.132607 0.337604 -0.012040 0.231304 0.591499 -0.018876 2.685474 6.864665 -0.053423 0.920990 18.417599 -0.867094 1.988852 -1.556448 -1.892489 1.754893 10.498295 1.819851 -5.454464 -8.870574 -6.907025 -32.014715 -86.956733 45.885223 -2.973361 3.507457 -29.718825 -5.103452 11.011814 -2.318711 18.115683 -5.249424 -0.386068 76.130221 -77.821013 -99.400026 -2.139859 7.624226 10.672050 -14.560709 -62.805924 5.243675 -33.751344 72.702463 -35.041743 -3.907065 -7.191191 -0.920974 -0.192454 0.747477 -0.137699 -1.164643 -65.041611 14.998513 42.489587 64.463984 36.030938 -17.840939 -8.635629 3.425214 -0.272125 -0.887824 -0.118037
-225.454745 57.509334 -75.664677 161.489271 -9.533646 0.289407 2.997851 7.221354 0.622652 0.132493 0.338743 -0.010199 0.230716 0.588396 -0.023707 2.682585 6.865027 -0.056073 0.896022 18.397599 -0.864465 1.923783 -1.608791 -1.876063 1.814083 10.450919 1.816452 -5.443012 -8.863049 -6.942030 -31.814105 -86.995407 45.715470 -3.021322 3.535628 -29.768027 -5.106006 10.986166 -2.324260 18.094438 -5.284523 -0.339828 76.091920 -77.818272 -99.352911 -2.136960 7.605974 10.681611 -14.664108 -62.783869 5.320555 -33.761903 72.709663 -35.009838 -3.917240 -7.198222 -0.968221 -0.148384 0.739027 -0.127964 -1.221424 -65.031924 15.065164 42.471245 64.473135 36.017905 -17.816364 -8.666490 3.435791 -0.272458 -0.867363 -0.126162
-225.449300 57.509205 -75.661707 161.495829 -9.539594 0.279373 2.992662 7.219387 0.621577 0.130503 0.342147 -0.006102 0.234239 0.587483 -0.023537 2.679984 6.865858 -0.058603 0.869171 18.377714 -0.861751 1.874042 -1.646369 -1.862810 1.843404 10.428794 1.818735 -5.435825 -8.859018 -6.959625 -31.753877 -87.018130 45.672138 -3.009031 3.530984 -29.756596 -5.119153 10.933958 -2.347219 18.094766 -5.270762 -0.282337 76.407409 -77.859717 -99.694605 -2.076372 7.658413 10.721338 -14.727846 -62.771456 5.357805 -33.735983 72.716572 -34.970699 -3.907436 -7.211634 -0.983457 -0.148379 0.743520 -0.128375 -1.244933 -65.026382 15.085728 42.464199 64.474900 36.011048 -17.787800 -8.688715 3.441414 -0.268267 -0.852417 -0.129686
-225.445280 57.508921 -75.658873 161.504405 -9.541351 0.278599 2.984703 7.219982 0.619720 0.132321 0.338814 -0.010435 0.235085 0.586269 -0.023222 2.677679 6.869029 -0.057412 0.839676 18.356483 -0.863126 1.820152 -1.683131 -1.848651 1.869036 10.403650 1.817276 -5.376145 -8.887602 -7.015728 -31.833050 -86.978007 45.709946 -2.995972 3.519059 -29.739828 -5.129960 10.903194 -2.361170 18.090369 -5.277061 -0.242460 76.665569 -77.880104 -99.962701 -2.069108 7.648506 10.720226 -14.802144 -62.766687 5.397779 -33.693741 72.724752 -34.933061 -3.885875 -7.218643 -0.992886 -0.151543 0.744391 -0.129595 -1.249162 -65.026024 15.087373 42.451416 64.479813 35.996735 -17.778925 -8.708324 3.446980 -0.265348 -0.834367 -0.132316
-225.443957 57.508960 -75.659403 161.495049 -9.555235 0.303279 2.995762 7.228230 0.591740 0.132969 0.333242 -0.013724 0.231344 0.593197 -0.018080 2.677993 6.871474 -0.057580 0.816494 18.342254 -0.861973 1.755195 -1.725742 -1.833506 1.881092 10.391901 1.819684 -5.305762 -8.929947 -7.072469 -31.944090 -86.910718 45.758447 -2.953866 3.488582 -29.697262 -5.134068 10.898097 -2.361078 18.065132 -5.338068 -0.211069 76.764081 -77.870484 -100.047227 -2.080847 7.629569 10.707112 -14.797311 -62.761174 5.372646 -33.647652 72.737996 -34.898876 -3.858788 -7.216826 -0.984910 -0.175080 0.739616 -0.138356 -1.195400 -65.013890 15.042036 42.431920 64.502227 35.972354 -17.754758 -8.724436 3.457893 -0.287263 -0.842794 -0.136466
-225.440135 57.508863 -75.659034 161.491949 -9.567107 0.311509 2.999594 7.234705 0.582287 0.131058 0.336137 -0.013021 0.231471 0.593531 -0.018146 2.679372 6.872315 -0.061738 0.809470 18.338360 -0.856412 1.718136 -1.749858 -1.825454 1.894249 10.377815 1.824460 -5.257938 -8.961253 -7.112421 -31.836245 -86.965229 45.670447 -2.991855 3.518773 -29.722588 -5.144379 10.866622 -2.371802 18.053725 -5.384740 -0.164563 76.850279 -77.861656 -100.126335 -2.087077 7.624814 10.699045 -14.818847 -62.753668 5.373750 -33.642648 72.748413 -34.883251 -3.850358 -7.219058 -1.008091 -0.163829 0.733583 -0.128904 -1.176525 -64.999610 15.030404 42.413104 64.512674 35.947989 -17.738982 -8.748069 3.465812 -0.301734 -0.864007 -0.137403
-225.435123 57.508633 -75.658114 161.486462 -9.576601 0.312666 3.002222 7.237847 0.577574 0.132592 0.339564 -0.010730 0.231717 0.593876 -0.018129 2.678115 6.868781 -0.072013 0.783671 18.323203 -0.846810 1.628590 -1.802992 -1.804708 1.918464 10.354914 1.832658 -5.221392 -8.981137 -7.144719 -31.699297 -86.992501 45.531108 -3.005155 3.527792 -29.721643 -5.144138 10.838090 -2.378127 18.045684 -5.486084 -0.102845 76.703445 -77.828851 -99.975923 -2.091948 7.615926 10.688983 -14.848719 -62.746830 5.389250 -33.640314 72.758695 -34.865558 -3.848650 -7.218651 -1.034779 -0.161550 0.725451 -0.119034 -1.166485 -64.989188 15.029974 42.405634 64.518676 35.938483 -17.724592 -8.773434 3.473015 -0.328998 -0.865267 -0.144575
-225.431512 57.508296 -75.657560 161.488829 -9.584211 0.321498 2.998331 7.229404 0.559949 0.132428 0.351606 -0.007541 0.231523 0.594047 -0.018499 2.674697 6.861983 -0.073089 0.708066 18.279477 -0.848678 1.575987 -1.832714 -1.788724 1.948199 10.336073 1.835377 -5.192424 -9.002546 -7.172036 -31.561708 -87.007308 45.383338 -3.000467 3.528410 -29.707207 -5.151349 10.816040 -2.385097 18.055977 -5.552479 -0.059436 76.711379 -77.812221 -99.991519 -2.094447 7.606049 10.676489 -14.878776 -62.743826 5.390798 -33.625916 72.770673 -34.839179 -3.843444 -7.218043 -1.059509 -0.154143 0.720682 -0.104358 -1.146421 -64.980770 15.009971 42.404546 64.520257 35.936664 -17.739475 -8.789101 3.473022 -0.313006 -0.866656 -0.142061
-225.425085 57.507923 -75.656777 161.489905 -9.594656 0.314611 2.996546 7.226189 0.564492 0.134428 0.354320 -0.008831 0.228280 0.578734 -0.021201 2.671052 6.874135 -0.072444 0.669288 18.253104 -0.844802 1.503958 -1.882531 -1.769544 1.999767 10.291382 1.839388 -5.189129 -8.996361 -7.195017 -31.482482 -87.026952 45.300524 -2.990412 3.532168 -29.693450 -5.173128 10.761783 -2.410612 18.083811 -5.534147 -0.006075 76.972810 -77.820229 -100.260807 -2.098737 7.596198 10.658759 -14.926084 -62.732461 5.419560 -33.623729 72.780445 -34.822995 -3.838229 -7.218497 -1.076303 -0.147725 0.714595 -0.101467 -1.159407 -64.969059 15.026295 42.401532 64.520502 35.932157 -17.719642 -8.802167 3.472417 -0.327376 -0.860006 -0.142858
-225.420285 57.507347 -75.656144 161.495284 -9.601708 0.317068 2.988200 7.222690 0.558945 0.134551 0.348436 -0.008696 0.227560 0.585111 -0.021669 2.666154 6.876697 -0.075389 0.627023 18.217111 -0.840762 1.425585 -1.950288 -1.749044 2.024123 10.273149 1.843410 -5.162538 -9.020636 -7.216919 -31.447347 -87.049214 45.267279 -2.979642 3.533677 -29.683021 -5.177688 10.742679 -2.417964 18.097620 -5.601332 0.028071 77.019521 -77.805921 -100.304150 -2.104117 7.585626 10.641025 -14.956737 -62.727383 5.425972 -33.618767 72.792704 -34.804893 -3.831191 -7.226235 -1.099093 -0.143522 0.712643 -0.098198 -1.151674 -64.960712 15.021883 42.390575 64.520781 35.914977 -17.725268 -8.799518 3.477740 -0.345044 -0.878842 -0.146522
-225.412181 57.507456 -75.659710 161.506340 -9.638229 0.308324 2.975950 7.252960 0.566088 0.134165 0.344479 -0.010167 0.226897 0.590536 -0.021244 2.661565 6.884050 -0.077506 0.580023 18.172479 -0.836802 1.338713 -2.034134 -1.727201 2.046667 10.247200 1.839304 -5.158049 -9.022085 -7.219245 -31.578392 -87.096642 45.414087 -2.970176 3.530724 -29.673837 -5.173417 10.730720 -2.417936 18.103266 -5.680672 0.046934 77.088970 -77.793819 -100.367517 -2.107766 7.575407 10.628094 -14.986089 -62.691440 5.427211 -33.662911 72.809475 -34.814092 -3.850102 -7.244126 -1.139321 -0.106595 0.707514 -0.087041 -1.172931 -64.921979 15.042721 42.411073 64.519269 35.919610 -17.707153 -8.795856 3.489692 -0.362145 -0.899040 -0.150595
-225.406903 57.506717 -75.659887 161.502979 -9.648884 0.311846 2.975656 7.261496 0.561393 0.131658 0.340795 -0.012167 0.230992 0.595813 -0.018688 2.659329 6.889163 -0.078666 0.522171 18.130908 -0.833771 1.243047 -2.124934 -1.701304 2.058383 10.231663 1.834928 -5.146688 -9.035439 -7.223356 -31.847135 -87.141794 45.692390 -2.963819 3.526243 -29.663719 -5.189103 10.694727 -2.430559 18.123348 -5.705960 0.072854 77.327378 -77.794229 -100.599386 -2.110826 7.565959 10.617661 -14.979381 -62.682501 5.418717 -33.669341 72.814957 -34.812379 -3.842930 -7.248171 -1.142279 -0.118109 0.711020 -0.076975 -1.157871 -64.911556 15.043158 42.422247 64.518159 35.920564 -17.719876 -8.778470 3.489480 -0.358555 -0.923205 -0.144906
-225.402069 57.505840 -75.660163 161.498495 -9.658616 0.318069 2.974791 7.270354 0.553713 0.132173 0.341883 -0.011591 0.233520 0.597016 -0.018984 2.657554 6.895702 -0.080445 0.456120 18.087033 -0.826863 1.137164 -2.213748 -1.669685 2.082835 10.191511 1.817790 -5.134656 -9.048461 -7.222775 -32.200097 -87.160454 46.038291 -2.967561 3.540920 -29.662353 -5.230061 10.616124 -2.454602 18.167101 -5.663116 0.114588 77.731035 -77.802013 -100.997146 -2.114761 7.558189 10.609876 -14.983637 -62.677274 5.419363 -33.661330 72.824291 -34.803221 -3.847996 -7.245277 -1.140808 -0.116256 0.704392 -0.084627 -1.128704 -64.898893 15.041283 42.412651 64.519429 35.897353 -17.752832 -8.761703 3.483155 -0.339801 -0.938262 -0.128929
-225.396312 57.504873 -75.660202 161.502537 -9.668511 0.316312 2.967472 7.279126 0.553644 0.129395 0.341322 -0.012749 0.235154 0.600418 -0.017086 2.633030 6.909597 -0.090116 0.408260 18.031183 -0.813965 1.017876 -2.300043 -1.631149 2.132200 10.138962 1.804982 -5.088175 -9.106779 -7.228016 -32.181450 -87.129657 45.984204 -2.964308 3.543221 -29.654713 -5.222783 10.563290 -2.458255 18.189774 -5.696478 0.135540 77.908893 -77.793918 -101.164229 -2.118660 7.549720 10.606044 -14.995449 -62.667325 5.409101 -33.637662 72.841765 -34.749445 -3.853636 -7.259997 -1.168832 -0.104133 0.707253 -0.082115 -1.133012 -64.888438 15.046481 42.421930 64.516142 35.900592 -17.747609 -8.749977 3.485472 -0.349331 -0.937271 -0.139401
-225.390293 57.503851 -75.660169 161.499075 -9.678591 0.312519 2.964849 7.283862 0.553650 0.129064 0.341649 -0.012873 0.228312 0.599424 -0.020380 2.640520 6.916474 -0.085521 0.327792 17.983338 -0.805234 0.884109 -2.388467 -1.586085 2.153016 10.105515 1.793882 -5.075927 -9.120610 -7.218367 -32.605200 -87.148594 46.400891 -2.955550 3.530798 -29.635860 -5.240962 10.527734 -2.468338 18.209054 -5.726832 0.154091 78.092184 -77.784681 -101.331606 -2.123008 7.538111 10.602014 -14.993022 -62.656722 5.402318 -33.619779 72.853397 -34.715351 -3.840873 -7.265799 -1.174193 -0.115887 0.711549 -0.075823 -1.122112 -64.877694 15.060007 42.402012 64.523145 35.875818 -17.765643 -8.744771 3.483255 -0.340359 -0.937048 -0.132489
-225.387268 57.502805 -75.661071 161.498317 -9.688945 0.324450 2.956619 7.287843 0.536374 0.127306 0.340240 -0.013638 0.227630 0.599792 -0.020595 2.628038 6.920218 -0.090446 0.253530 17.933514 -0.790254 0.735626 -2.482321 -1.536219 2.183251 10.092791 1.796480 -5.057161 -9.149529 -7.213890 -33.092317 -87.166645 46.877186 -2.957548 3.534712 -29.622694 -5.229940 10.516495 -2.467048 18.220977 -5.769748 0.161764 78.263344 -77.774679 -101.492247 -2.126691 7.527079 10.595878 -14.960179 -62.651169 5.364727 -33.604698 72.864765 -34.686585 -3.856849 -7.275215 -1.178319 -0.106596 0.716902 -0.074639 -1.079411 -64.868099 15.033676 42.423738 64.523696 35.878971 -17.780598 -8.733987 3.496153 -0.354039 -0.944337 -0.132391
